<?xml version="1.0" standalone="no"?><!-- Generator: Gravit.io --><svg xmlns="http://www.w3.org/2000/svg" xmlns:xlink="http://www.w3.org/1999/xlink" style="isolation:isolate" viewBox="0 0 108 108" width="108" height="108"><defs><clipPath id="_clipPath_2zwAXBT3cQSUVlmQc5PcReuzyLc5PM42"><rect width="108" height="108"/></clipPath></defs><g clip-path="url(#_clipPath_2zwAXBT3cQSUVlmQc5PcReuzyLc5PM42)"><g style="isolation:isolate" id="Foreground"><defs><filter id="zm7X2PWz7eTjibOYZFyByz0pRB4tuDRy" x="-200%" y="-200%" width="400%" height="400%"><feOffset xmlns="http://www.w3.org/2000/svg" in="SourceAlpha" result="offOut" dx="0" dy="4"/><feGaussianBlur xmlns="http://www.w3.org/2000/svg" in="offOut" result="blurOut" stdDeviation="2"/><feComponentTransfer xmlns="http://www.w3.org/2000/svg" in="blurOut" result="opacOut"><feFuncA xmlns="http://www.w3.org/2000/svg" type="table" tableValues="0 0.5"/></feComponentTransfer><feBlend xmlns="http://www.w3.org/2000/svg" in="SourceGraphic" in2="opacOut" mode="normal" result="_out_5g8MMocuLie54lPbcwZOYmyZY0c5tBj8"/><feOffset xmlns="http://www.w3.org/2000/svg" in="_out_5g8MMocuLie54lPbcwZOYmyZY0c5tBj8" result="offOut" dx="0" dy="0"/><feGaussianBlur xmlns="http://www.w3.org/2000/svg" in="offOut" result="blurOut" stdDeviation="1"/><feComponentTransfer xmlns="http://www.w3.org/2000/svg" in="blurOut" result="opacOut"><feFuncA xmlns="http://www.w3.org/2000/svg" type="table" tableValues="0 0.5"/></feComponentTransfer><feBlend xmlns="http://www.w3.org/2000/svg" in="_out_5g8MMocuLie54lPbcwZOYmyZY0c5tBj8" in2="opacOut" mode="normal"/></filter></defs><g filter="url(#zm7X2PWz7eTjibOYZFyByz0pRB4tuDRy)"><path d="M 34.776 32.4 L 73.224 32.4 C 74.535 32.4 75.6 33.465 75.6 34.776 L 75.6 105.624 C 75.6 106.935 74.535 108 73.224 108 L 34.776 108 C 33.465 108 32.4 106.935 32.4 105.624 L 32.4 34.776 C 32.4 33.465 33.465 32.4 34.776 32.4 Z" style="stroke:none;fill:#FFFFFF;stroke-miterlimit:10;"/></g><g style="mix-blend-mode:normal;" opacity="0.64"><g transform="matrix(1,0,0,1,43.2,38.423)"><text transform="matrix(1,0,0,1,3.799,20.957)" style="font-family:&quot;Roboto Mono&quot;;font-weight:400;font-size:20px;font-style:normal;fill:#000000;stroke:none;">?</text></g></g><rect x="32.4" y="97.2" width="43.2" height="10.8" transform="matrix(1,0,0,1,0,0)" fill="rgb(255,255,255)"/></g></g></svg>